# xmcd CD database file
# Copyright (C) 1995-1998 Ti Kan
#
# Track frame offsets:
#	225
#	11585
#	27399
#	43245
#	57865
#	80336
#	91217
#	103982
#	119350
#	128608
#	145770
#	155355
#	166570
#	181166
#	193388
#	205864
#	220036
#	235902
#	253217
#	263395
#	274324
#
# Disc length: 3834 seconds
#
# Revision: 1
# Processed by: cddbd v1.4b41PL1 Copyright (c) Steve Scherf et al.
# Submitted via: CDex 1.30
#
DISCID=230ef715
DTITLE=The Sa Country Collection 2 - The Sa Country Collection 2
DYEAR=2000
DGENRE=Country
TTITLE0=I Wanna Live-Tommy Oliver
TTITLE1=Seasons In The Sun-Jody Wayne
TTITLE2=Coat Of Many Colours-Nadine
TTITLE3=Crying In The Rain-Babara Ray
TTITLE4=Sunday Morning Comming Down-Bobby Angel
TTITLE5=Single Girl-Barbara Ray
TTITLE6=Stand Beside Me-Babara Ray and Lance James
TTITLE7=You Were Always On My Mind-Tommy Dell
TTITLE8=If Teardrops Were Pennies-Min Shaw and Lance James
TTITLE9=Grandpa-Joanna Field
TTITLE10=Kiss An Angel Good Morning-Jody Wayne
TTITLE11=I Need You-Roy Bulkin
TTITLE12=Patches-Jody Wayne
TTITLE13=The End Of The World-Virginial Lee
TTITLE14=Have To Say I Love You In A Song-Joanna Field
TTITLE15=One Day At A Time-Helga Amore
TTITLE16=On Top Of Old Smokey-Tommy Dell
TTITLE17=Nobody's Child-Virginia Lee
TTITLE18=We'll Sing In The Sunshine-Barbara and Lance
TTITLE19=Walk Right Back-Barbara and Lance
TTITLE20=I'm Gonna Be A Country Girl Again-Barbara Ray
EXTD=\nYEAR: 2000  ID3G:   2
EXTT0=
EXTT1=
EXTT2=
EXTT3=
EXTT4=
EXTT5=
EXTT6=
EXTT7=
EXTT8=
EXTT9=
EXTT10=
EXTT11=
EXTT12=
EXTT13=
EXTT14=
EXTT15=
EXTT16=
EXTT17=
EXTT18=
EXTT19=
EXTT20=
PLAYORDER=
